<svg width="512" height="512" xmlns="http://www.w3.org/2000/svg">
 <defs>
  <linearGradient id="svg_34" x1="0" y1="1" x2="1" y2="0">
   <stop stop-color="#ae9f98" offset="0"/>
   <stop stop-color="#516067" offset="0.84766"/>
  </linearGradient>
 </defs>
 <g>
  <title>background</title>
  <rect x="-1" y="-1" width="514" height="514" id="canvas_background" fill="none"/>
 </g>
 <g>
  <title>Layer 1</title>
  <path d="m512,297c0,37.658 -26.728,71.868 -70.311,97.165c-46.644,27.094 -112.588,43.99 -185.689,43.99c-141.385,0 -256,-63.195 -256,-141.155s114.615,-141.155 256,-141.155c33.092,0 64.711,3.459 93.748,9.759l0,0.01c95.013,20.616 162.252,71.671 162.252,131.386z" fill="#98A7AE" id="svg_1"/>
  <path d="m512,297c0,37.658 -26.728,71.868 -70.311,97.165c-18.495,-38.494 -38.849,-85.274 -38.849,-104.751c0,-35.694 -19.148,-114.78 -53.091,-123.8c95.012,20.616 162.251,71.671 162.251,131.386z" fill="#7B888E" id="svg_2"/>
  <path d="m492.575,351.032c-38.462,51.147 -129.901,87.123 -236.575,87.123s-198.113,-35.976 -236.575,-87.123c38.462,-51.159 129.901,-87.134 236.575,-87.134s198.113,35.975 236.575,87.134z" fill="#332F41" id="svg_3"/>
  <g id="svg_4"/>
  <g id="svg_5"/>
  <g id="svg_6"/>
  <g id="svg_7"/>
  <g id="svg_8"/>
  <g id="svg_9"/>
  <g id="svg_10"/>
  <g id="svg_11"/>
  <g id="svg_12"/>
  <g id="svg_13"/>
  <g id="svg_14"/>
  <g id="svg_15"/>
  <g id="svg_16"/>
  <g id="svg_17"/>
  <g id="svg_18"/>
  <path fill="url(#svg_34)" stroke-width="3" d="m129.57747,175.77118c0.24442,-45.36478 -0.15639,-90.79019 2.00996,-136.07518c53.23117,14.89679 105.83452,39.2716 158.1687,61.19166c2.80952,-22.24418 1.48715,-40.69599 3.92821,-61.2623c33.62167,43.27716 66.94016,87.1706 98.89313,133.15422c-30.65577,52.16125 -65.81905,97.4597 -100.33997,143.8458c-1.11786,-21.60133 -2.23593,-43.2025 -3.35381,-64.80382c-50.87875,20.89828 -104.68472,42.50507 -155.89243,61.61011c-3.48237,-44.08408 -3.38002,-92.09294 -3.41379,-137.66048l0,-0.00001z" id="svg_20" transform="rotate(90 261.0774536132813,178.12536621093753) " stroke="#000000"/>
 </g>
</svg>