<svg width="85" height="85" xmlns="http://www.w3.org/2000/svg">

 <g>
  <title>background</title>
  <rect fill="none" id="canvas_background" height="87" width="87" y="-1" x="-1"/>
 </g>
 <g>
  <title>Layer 1</title>
  <g transform="rotate(45 42.44049072265626,42.44049072265624) " fill="none" id="014---Bear-Trap">
   <g id="Layer_3">
    <path fill="#9e9e9e" d="m59.42573,65.34205l0,4.1c-0.00329,1.1032 -0.8968,1.99671 -2,2l-42,0c-1.1032,-0.00329 -1.99671,-0.8968 -2,-2l0,-9l4,-12l3.05,9.15c0.13488,0.41037 0.51803,0.68775 0.95,0.68775s0.81512,-0.27738 0.95,-0.68775l3.05,-9.15l3.05,9.15c0.13488,0.41037 0.51803,0.68775 0.95,0.68775s0.81512,-0.27738 0.95,-0.68775l3.05,-9.15l3.05,9.15c0.13488,0.41037 0.51803,0.68775 0.95,0.68775s0.81512,-0.27738 0.95,-0.68775l3.05,-9.15l3.77,11.32c0.14115,0.40465 0.52145,0.67686 0.95,0.68l9.28,0c-0.00048,2.37634 1.67167,4.42473 4,4.9z" id="Shape"/>
    <path fill="#9e9e9e" d="m71.42573,15.44205l0,42c-0.00329,1.1032 -0.8968,1.99671 -2,2l-4.1,0c-0.47527,-2.32833 -2.52366,-4.00048 -4.9,-4l0,-9.28c-0.00314,-0.42855 -0.27535,-0.80885 -0.68,-0.95l-11.32,-3.77l9.15,-3.05c0.41037,-0.13488 0.68775,-0.51803 0.68775,-0.95s-0.27738,-0.81512 -0.68775,-0.95l-9.15,-3.05l9.15,-3.05c0.41037,-0.13488 0.68775,-0.51803 0.68775,-0.95s-0.27738,-0.81512 -0.68775,-0.95l-9.15,-3.05l9.15,-3.05c0.41037,-0.13488 0.68775,-0.51803 0.68775,-0.95s-0.27738,-0.81512 -0.68775,-0.95l-9.15,-3.05l12,-4l10,0c1.1,0 1,0.9 1,2z" id="Shape"/>
    <path fill="#607d8b" d="m65.42573,60.44205c0,2.76142 -2.23858,5 -5,5c-0.33595,0.00241 -0.67118,-0.03111 -1,-0.1c-2.45178,-0.50114 -4.15549,-2.73767 -3.98743,-5.2345c0.16806,-2.49682 2.15611,-4.48487 4.65293,-4.65293c2.49683,-0.16806 4.73336,1.53565 5.2345,3.98743c0.06889,0.32882 0.10241,0.66405 0.1,1z" id="Shape"/>
   </g>
   <g fill="#000" id="Layer_2">
    <path d="m70.42573,12.44205c-10.939,0 -10.1,-0.022 -10.316,0.051l-12,4c-0.41037,0.13488 -0.68775,0.51803 -0.68775,0.95s0.27738,0.81512 0.68775,0.95l9.153,3.049l-9.153,3.051c-0.41037,0.13488 -0.68775,0.51803 -0.68775,0.95s0.27738,0.81512 0.68775,0.95l9.153,3.049l-9.153,3.051c-0.41037,0.13488 -0.68775,0.51803 -0.68775,0.95s0.27738,0.81512 0.68775,0.95l9.153,3.049l-9.153,3.051c-0.41037,0.13488 -0.68775,0.51803 -0.68775,0.95s0.27738,0.81512 0.68775,0.95l11.316,3.77l0,8.369c-2.51251,0.42941 -4.48059,2.39749 -4.91,4.91l-8.369,0l-3.772,-11.316c-0.13488,-0.41037 -0.51803,-0.68775 -0.95,-0.68775s-0.81512,0.27738 -0.95,0.68775l-3.049,9.153l-3.051,-9.153c-0.13488,-0.41037 -0.51803,-0.68775 -0.95,-0.68775s-0.81512,0.27738 -0.95,0.68775l-3.049,9.153l-3.051,-9.153c-0.13488,-0.41037 -0.51803,-0.68775 -0.95,-0.68775s-0.81512,0.27738 -0.95,0.68775l-3.049,9.153l-3.051,-9.153c-0.13488,-0.41037 -0.51803,-0.68775 -0.95,-0.68775s-0.81512,0.27738 -0.95,0.68775c-4.327,12.987 -4.049,12.08 -4.049,12.316l0,9c0,1.65685 1.34315,3 3,3l42,0c1.65685,0 3,-1.34315 3,-3l0,-3c3.31234,-0.00331 5.99669,-2.68766 6,-6l3,0c1.65685,0 3,-1.34315 3,-3l0,-42.248c0.11997,-0.78827 -0.08899,-1.59122 -0.578,-2.221c-0.38107,-0.3646 -0.89522,-0.5566 -1.422,-0.531zm-12,57c0,0.55228 -0.44772,1 -1,1l-42,0c-0.55228,0 -1,-0.44772 -1,-1l0,-8.838l3,-9l2.1,6.308c0.27257,0.81612 1.03657,1.36645 1.897,1.36645c0.86043,0 1.62443,-0.55033 1.897,-1.36645l2.106,-6.308l2.1,6.308c0.27257,0.81612 1.03657,1.36645 1.897,1.36645s1.62443,-0.55033 1.897,-1.36645l2.106,-6.308l2.1,6.308c0.27257,0.81612 1.03657,1.36645 1.897,1.36645s1.62443,-0.55033 1.897,-1.36645l2.106,-6.308l2.823,8.471c0.27249,0.81669 1.03705,1.36735 1.898,1.367l8.369,0c0.36648,2.14306 1.86163,3.92118 3.91,4.65l0,3.35zm2,-5c-2.20914,0 -4,-1.79086 -4,-4s1.79086,-4 4,-4s4,1.79086 4,4s-1.79086,4 -4,4zm10,-7c0,0.55228 -0.44772,1 -1,1l-3.35,0c-0.72882,-2.04837 -2.50694,-3.54352 -4.65,-3.91l0,-8.369c0.00121,-0.86169 -0.54961,-1.62728 -1.367,-1.9l-8.471,-2.821l6.308,-2.1c0.81612,-0.27257 1.36645,-1.03657 1.36645,-1.897s-0.55033,-1.62443 -1.36645,-1.897l-6.308,-2.106l6.308,-2.1c0.81612,-0.27257 1.36645,-1.03657 1.36645,-1.897s-0.55033,-1.62443 -1.36645,-1.897l-6.308,-2.106l6.308,-2.1c0.81612,-0.27257 1.36645,-1.03657 1.36645,-1.897c0,-0.86043 -0.55033,-1.62443 -1.36645,-1.897l-6.308,-2.106l9,-3l9.819,0c0.031,0.245 0.019,-2.434 0.019,43z" id="Shape"/>
    <circle r="1" cy="60.44205" cx="60.42573" id="Oval"/>
   </g>
  </g>
 </g>
</svg>