<svg id="Capa_1" enable-background="new 0 0 512 512" height="512" viewBox="0 0 512 512" width="512" xmlns="http://www.w3.org/2000/svg"><g><g clip-rule="evenodd" fill-rule="evenodd"><path d="m512 260.168v166.762c0 23.385-19.105 42.52-42.492 42.52h-427.016c-23.358-.001-42.492-19.135-42.492-42.52v-166.762c0-5.443 2.722-7.824 7.795-7.824h496.409c5.471 0 7.796 2.693 7.796 7.824z" fill="#b0cf00"/><path d="m0 391.922v-131.754c0-5.443 2.722-7.824 7.795-7.824h268.331c0 17.49-6.633 33.363-17.292 44.9-10.687 11.537-25.399 18.68-41.556 18.68h-39.657c-10.063.029-18.255 8.816-18.369 19.674-1.644 15.59-8.589 29.564-18.85 39.713-10.46 10.318-24.378 16.611-39.686 16.611z" fill="#62d9fa"/><path d="m0 391.922v-24.975h75.715c15.307 0 29.225-6.32 39.685-16.639 10.262-10.148 17.235-24.094 18.879-39.713.085-10.857 8.277-19.645 18.341-19.672h39.657c16.158 0 30.87-7.145 41.556-18.682 5.245-5.668 9.525-12.416 12.502-19.898h29.792c0 17.49-6.633 33.363-17.292 44.9-10.687 11.537-25.399 18.68-41.556 18.68h-39.657c-10.063.029-18.255 8.816-18.369 19.674-1.644 15.59-8.589 29.564-18.85 39.713-10.46 10.318-24.378 16.611-39.686 16.611h-100.717z" fill="#52cef0"/><path d="m391.781 42.551c37.872 0 68.571 30.332 68.571 67.721 0 8.078-1.418 15.816-4.054 22.988-2.041 5.613-2.211 6.775 2.325 11.197 17.49 17.035 28.346 40.734 28.346 66.926 0 51.932-42.605 93.996-95.188 93.996-52.555 0-95.188-42.064-95.188-93.996 0-26.021 10.715-49.578 28.035-66.586 5.017-4.961 4.932-5.215 2.551-11.793-2.551-7.113-3.968-14.768-3.968-22.732-.001-37.389 30.699-67.721 68.57-67.721z" fill="#10cb35"/><path d="m391.781 42.551c37.872 0 68.571 30.332 68.571 67.721 0 8.078-1.418 15.816-4.054 22.988-2.041 5.613-2.211 6.775 2.325 11.197 17.49 17.035 28.346 40.734 28.346 66.926 0 51.932-42.605 93.996-95.188 93.996-4.224 0-8.391-.283-12.5-.793 46.687-6.037 82.716-45.467 82.716-93.203 0-26.191-10.857-49.891-28.375-66.926-4.536-4.422-4.366-5.584-2.325-11.197 2.636-7.172 4.082-14.91 4.082-22.988 0-33.193-24.18-60.775-56.098-66.586 4.052-.739 8.248-1.135 12.5-1.135z" fill="#66b394"/></g><path d="m399.293 376.217c0 4.139-3.374 7.512-7.512 7.512s-7.483-3.373-7.483-7.512v-100.033l-28.574-28.545c-2.919-2.92-2.919-7.682 0-10.602 2.948-2.949 7.683-2.949 10.63 0l17.943 17.943v-29.566l-28.574-28.545c-2.919-2.947-2.919-7.682 0-10.629 2.948-2.92 7.683-2.92 10.63 0l17.943 17.971v-29.594l-28.574-28.545c-2.919-2.92-2.919-7.682 0-10.602 2.948-2.92 7.683-2.92 10.63 0l17.943 17.943v-30.529c0-4.139 3.345-7.483 7.483-7.483 4.139 0 7.512 3.344 7.512 7.483v30.529l17.943-17.943c2.92-2.92 7.682-2.92 10.602 0s2.92 7.682 0 10.602l-28.545 28.545v29.594l17.943-17.971c2.92-2.92 7.682-2.92 10.602 0 2.92 2.947 2.92 7.682 0 10.629l-28.545 28.545v29.566l17.943-17.943c2.92-2.949 7.682-2.949 10.602 0 2.92 2.92 2.92 7.682 0 10.602l-28.545 28.545v100.033z" fill="#917d52"/><path d="m129.262 291.66c-4.139 0-7.484-3.373-7.484-7.512s3.345-7.484 7.484-7.484h91.305c4.139 0 7.512 3.346 7.512 7.484 0 4.139-3.373 7.512-7.512 7.512zm-129.262 11.99h66.672c4.139 0 7.512 3.373 7.512 7.512s-3.374 7.484-7.512 7.484h-66.672zm46.914 56.608c-4.139 0-7.483-3.373-7.483-7.512s3.345-7.482 7.483-7.482h66.615c4.139 0 7.483 3.344 7.483 7.482s-3.345 7.512-7.483 7.512z" fill="#30bce3"/><path clip-rule="evenodd" d="m188.166 110.186c11.027 4.111 18.964 14.77 18.964 27.186 0 15.959-13.068 29.025-29.027 29.025h-101.85c-15.959 0-29.027-13.066-29.027-29.025s13.067-29 29.027-29c0-12.953 10.488-23.441 23.443-23.441 5.783 0 11.084 2.098 15.194 5.584 5.924-13.521 19.417-22.961 35.15-22.961 21.175 0 38.353 17.178 38.353 38.381 0 1.417-.085 2.835-.227 4.251z" fill="#d2f6ff" fill-rule="evenodd"/><path clip-rule="evenodd" d="m444.506 444.447h-440.707c6.689 14.713 21.572 25.002 38.693 25.002h427.016c23.387 0 42.492-19.135 42.492-42.52v-166.761c0-5.131-2.325-7.824-7.795-7.824h-17.207v149.584c0 23.387-19.106 42.519-42.492 42.519z" fill="#95d6a4" fill-rule="evenodd"/><path clip-rule="evenodd" d="m76.253 166.396h101.85c15.959 0 29.027-13.066 29.027-29.025 0-4.451-1.049-8.703-2.863-12.502-4.677 9.752-14.684 16.525-26.164 16.525h-101.85c-11.508 0-21.487-6.773-26.164-16.525-1.842 3.799-2.863 8.051-2.863 12.502 0 15.959 13.067 29.025 29.027 29.025z" fill="#b8f0ff" fill-rule="evenodd"/></g></svg>